<svg xmlns="http://www.w3.org/2000/svg" version="1.1" xmlns:xlink="http://www.w3.org/1999/xlink" xmlns:svgjs="http://svgjs.dev/svgjs" width="1000" height="1000" viewBox="0 0 1000 1000"><rect width="1000" height="1000" fill="#ffffff"></rect><g transform="matrix(0.7,0,0,0.7,150.42223835777122,363.16028947368426)"><svg viewBox="0 0 341 133" data-background-color="#ffffff" preserveAspectRatio="xMidYMid meet" height="390" width="1000" xmlns="http://www.w3.org/2000/svg" xmlns:xlink="http://www.w3.org/1999/xlink"><g id="tight-bounds" transform="matrix(1,0,0,1,-0.2056903999999804,0.16549999999998022)"><svg viewBox="0 0 341.41138079999996 132.6686899182586" height="132.6686899182586" width="341.41138079999996"><rect width="341.41138079999996" height="132.669" fill="url(#92162789-bbc4-446e-84da-2fae8a0d5dd5)" mask="url(#d6124c76-979e-4da8-a966-037ce98fb31b)" data-fill-palette-color="tertiary"></rect><g><svg viewBox="0 0 341.41138079999996 132.6686899182586" height="132.6686899182586" width="341.41138079999996"><g><svg viewBox="0 0 341.41138079999996 132.6686899182586" height="132.6686899182586" width="341.41138079999996"><g><svg viewBox="0 0 341.41138079999996 132.6686899182586" height="132.6686899182586" width="341.41138079999996"><g><path d="M0 132.669v-132.669h341.411v132.669z" fill="url(#92162789-bbc4-446e-84da-2fae8a0d5dd5)" stroke="transparent" stroke-width="0" rx="0%" data-fill-palette-color="tertiary"></path><path d="M4.509 128.16v-123.651h332.393v123.651z" fill="#000000" stroke="transparent" stroke-width="0" rx="0%" data-fill-palette-color="quaternary"></path><path d="M13.527 119.142v-105.615h314.357v105.615z" fill="url(#92162789-bbc4-446e-84da-2fae8a0d5dd5)" stroke="transparent" stroke-width="0" data-fill-palette-color="tertiary"></path></g><g transform="matrix(1,0,0,1,27.054309599999996,27.054309599999996)" id="textblocktransform"><svg viewBox="0 0 287.30276159999994 78.5600707182586" height="78.5600707182586" width="287.30276159999994" id="textblock"><g><svg viewBox="0 0 287.30276159999994 40.667817262139536" height="40.667817262139536" width="287.30276159999994"><g transform="matrix(1,0,0,1,0,0)"><svg width="287.30276159999994" viewBox="0 -29.5 322.49 45.65" height="40.667817262139536" data-palette-color="#000000"><path d="M1.5 0L0 0 0-29.5 1.5-29.5 1.5 0ZM9 0L7.5 0 7.5-29.5 9-29.5 9 0ZM12 0L10.5 0 10.5-29.5 12-29.5 12 0ZM19.5 0L18 0 18-29.5 19.5-29.5 19.5 0ZM27 0L25.5 0 25.5-29.5 27-29.5 27 0ZM33 0L28.5 0 28.5-29.5 33-29.5 33 0ZM39 0L34.5 0 34.5-29.5 39-29.5 39 0ZM42 0L40.5 0 40.5-29.5 42-29.5 42 0ZM49.5 0L48 0 48-29.5 49.5-29.5 49.5 0ZM52.5 0L51 0 51-29.5 52.5-29.5 52.5 0ZM27.65 16.15L27.65 16.15Q26.4 16.15 25.45 15.6L25.45 15.6Q24.5 15 23.95 14L23.95 14Q23.4 13 23.4 11.7L23.4 11.7Q23.4 10.45 23.95 9.45L23.95 9.45Q24.5 8.45 25.45 7.85L25.45 7.85Q26.4 7.3 27.65 7.3L27.65 7.3Q28.65 7.3 29.5 7.7L29.5 7.7Q30.3 8.1 30.85 8.85L30.85 8.85 30 9.7 29.9 9.8 29.8 9.7Q29.8 9.55 29.7 9.4L29.7 9.4Q29.65 9.3 29.45 9.1L29.45 9.1Q29.05 8.75 28.6 8.6L28.6 8.6Q28.1 8.4 27.5 8.4L27.5 8.4Q26.75 8.4 26.15 8.8L26.15 8.8Q25.5 9.2 25.15 9.95L25.15 9.95Q24.75 10.65 24.75 11.6L24.75 11.6Q24.75 12.55 25.15 13.35L25.15 13.35Q25.55 14.1 26.2 14.5L26.2 14.5Q26.9 14.95 27.7 14.95L27.7 14.95Q29 14.95 29.95 13.9L29.95 13.9 30.7 14.8Q29.45 16.15 27.65 16.15ZM55.5 0L54 0 54-29.5 55.5-29.5 55.5 0ZM63 0L61.5 0 61.5-29.5 63-29.5 63 0ZM66 0L64.5 0 64.5-29.5 66-29.5 66 0ZM73.5 0L72 0 72-29.5 73.5-29.5 73.5 0ZM81 0L79.5 0 79.5-29.5 81-29.5 81 0ZM87 0L82.5 0 82.5-29.5 87-29.5 87 0ZM90 0L88.5 0 88.5-29.5 90-29.5 90 0ZM93 0L91.5 0 91.5-29.5 93-29.5 93 0ZM103.5 0L99 0 99-29.5 103.5-29.5 103.5 0ZM106.5 0L105 0 105-29.5 106.5-29.5 106.5 0ZM77.7 15.95L77.7 3.6 79.2 3.6 79.2 3.7Q79.05 3.85 79.05 3.95L79.05 3.95Q79 4.1 79 4.4L79 4.4 79 8.95Q79.5 8.2 80.25 7.7L80.25 7.7Q81 7.25 81.8 7.25L81.8 7.25Q83 7.25 83.7 8.1L83.7 8.1Q84.4 8.95 84.4 10.8L84.4 10.8 84.4 15.95 83.1 15.95 83.1 10.85Q83.1 9.55 82.65 9L82.65 9Q82.2 8.4 81.5 8.4L81.5 8.4Q80.9 8.4 80.35 8.75L80.35 8.75Q79.75 9.05 79.4 9.7L79.4 9.7Q79 10.3 79 11.05L79 11.05 79 15.95 77.7 15.95ZM109.5 0L108 0 108-29.5 109.5-29.5 109.5 0ZM117 0L115.5 0 115.5-29.5 117-29.5 117 0ZM120 0L118.5 0 118.5-29.5 120-29.5 120 0ZM127.5 0L126 0 126-29.5 127.5-29.5 127.5 0ZM135 0L133.5 0 133.5-29.5 135-29.5 135 0ZM141 0L136.5 0 136.5-29.5 141-29.5 141 0ZM144 0L142.5 0 142.5-29.5 144-29.5 144 0ZM150 0L145.5 0 145.5-29.5 150-29.5 150 0ZM153 0L151.5 0 151.5-29.5 153-29.5 153 0ZM160.5 0L159 0 159-29.5 160.5-29.5 160.5 0ZM135 16.1L135 16.1Q133.84 16.1 132.94 15.55L132.94 15.55Q132.09 15 131.59 14L131.59 14Q131.05 13 131.05 11.7L131.05 11.7Q131.05 10.4 131.59 9.4L131.59 9.4Q132.09 8.4 132.94 7.85L132.94 7.85Q133.84 7.25 135 7.25L135 7.25Q136.15 7.25 137 7.85L137 7.85Q137.9 8.4 138.4 9.4L138.4 9.4Q138.9 10.4 138.9 11.7L138.9 11.7Q138.9 13 138.4 14L138.4 14Q137.9 15 137 15.55L137 15.55Q136.15 16.1 135 16.1ZM135 15L135 15Q135.69 15 136.3 14.55L136.3 14.55Q136.84 14.15 137.19 13.4L137.19 13.4Q137.5 12.6 137.5 11.65L137.5 11.65Q137.5 10.2 136.8 9.3L136.8 9.3Q136.09 8.4 135 8.4L135 8.4Q133.9 8.4 133.19 9.3L133.19 9.3Q132.5 10.2 132.5 11.65L132.5 11.65Q132.5 12.6 132.8 13.4L132.8 13.4Q133.15 14.15 133.69 14.55L133.69 14.55Q134.25 15 135 15ZM163.49 0L161.99 0 161.99-29.5 163.49-29.5 163.49 0ZM170.99 0L169.49 0 169.49-29.5 170.99-29.5 170.99 0ZM173.99 0L172.49 0 172.49-29.5 173.99-29.5 173.99 0ZM181.49 0L179.99 0 179.99-29.5 181.49-29.5 181.49 0ZM188.99 0L187.49 0 187.49-29.5 188.99-29.5 188.99 0ZM191.99 0L190.49 0 190.49-29.5 191.99-29.5 191.99 0ZM197.99 0L193.49 0 193.49-29.5 197.99-29.5 197.99 0ZM200.99 0L199.49 0 199.49-29.5 200.99-29.5 200.99 0ZM211.49 0L206.99 0 206.99-29.5 211.49-29.5 211.49 0ZM214.49 0L212.99 0 212.99-29.5 214.49-29.5 214.49 0ZM186.19 15.95L186.19 14.85 188.39 14.85 188.39 8.55 186.29 8.55 186.29 7.45 189.69 7.45 189.69 14.85 191.69 14.85 191.69 15.95 186.19 15.95ZM188.99 5.65L188.99 5.65Q188.59 5.65 188.29 5.4L188.29 5.4Q188.04 5.1 188.04 4.7L188.04 4.7Q188.04 4.3 188.29 4.05L188.29 4.05Q188.54 3.75 188.99 3.75L188.99 3.75Q189.34 3.75 189.64 4.05L189.64 4.05Q189.94 4.35 189.94 4.7L189.94 4.7Q189.94 5.1 189.64 5.4L189.64 5.4Q189.34 5.65 188.99 5.65ZM217.49 0L215.99 0 215.99-29.5 217.49-29.5 217.49 0ZM224.99 0L223.49 0 223.49-29.5 224.99-29.5 224.99 0ZM227.99 0L226.49 0 226.49-29.5 227.99-29.5 227.99 0ZM235.49 0L233.99 0 233.99-29.5 235.49-29.5 235.49 0ZM242.99 0L241.49 0 241.49-29.5 242.99-29.5 242.99 0ZM248.99 0L244.49 0 244.49-29.5 248.99-29.5 248.99 0ZM254.99 0L250.49 0 250.49-29.5 254.99-29.5 254.99 0ZM257.99 0L256.49 0 256.49-29.5 257.99-29.5 257.99 0ZM265.49 0L263.99 0 263.99-29.5 265.49-29.5 265.49 0ZM268.49 0L266.99 0 266.99-29.5 268.49-29.5 268.49 0ZM243.64 16.15L243.64 16.15Q242.39 16.15 241.44 15.6L241.44 15.6Q240.49 15 239.94 14L239.94 14Q239.39 13 239.39 11.7L239.39 11.7Q239.39 10.45 239.94 9.45L239.94 9.45Q240.49 8.45 241.44 7.85L241.44 7.85Q242.39 7.3 243.64 7.3L243.64 7.3Q244.64 7.3 245.49 7.7L245.49 7.7Q246.29 8.1 246.84 8.85L246.84 8.85 245.99 9.7 245.89 9.8 245.79 9.7Q245.79 9.55 245.69 9.4L245.69 9.4Q245.64 9.3 245.44 9.1L245.44 9.1Q245.04 8.75 244.59 8.6L244.59 8.6Q244.09 8.4 243.49 8.4L243.49 8.4Q242.74 8.4 242.14 8.8L242.14 8.8Q241.49 9.2 241.14 9.95L241.14 9.95Q240.74 10.65 240.74 11.6L240.74 11.6Q240.74 12.55 241.14 13.35L241.14 13.35Q241.54 14.1 242.19 14.5L242.19 14.5Q242.89 14.95 243.69 14.95L243.69 14.95Q244.99 14.95 245.94 13.9L245.94 13.9 246.69 14.8Q245.44 16.15 243.64 16.15ZM271.49 0L269.99 0 269.99-29.5 271.49-29.5 271.49 0ZM278.99 0L277.49 0 277.49-29.5 278.99-29.5 278.99 0ZM281.99 0L280.49 0 280.49-29.5 281.99-29.5 281.99 0ZM289.49 0L287.99 0 287.99-29.5 289.49-29.5 289.49 0ZM296.99 0L295.49 0 295.49-29.5 296.99-29.5 296.99 0ZM302.99 0L298.49 0 298.49-29.5 302.99-29.5 302.99 0ZM305.99 0L304.49 0 304.49-29.5 305.99-29.5 305.99 0ZM311.99 0L307.49 0 307.49-29.5 311.99-29.5 311.99 0ZM319.49 0L317.99 0 317.99-29.5 319.49-29.5 319.49 0ZM322.49 0L320.99 0 320.99-29.5 322.49-29.5 322.49 0ZM297.39 16.15L297.39 16.15Q295.49 16.15 294.39 15L294.39 15Q293.24 13.85 293.24 11.75L293.24 11.75Q293.24 10.35 293.79 9.3L293.79 9.3Q294.29 8.3 295.19 7.8L295.19 7.8Q296.04 7.25 297.14 7.25L297.14 7.25Q298.69 7.25 299.64 8.25L299.64 8.25Q300.59 9.3 300.59 11.3L300.59 11.3Q300.59 11.5 300.59 11.9L300.59 11.9 294.54 11.9Q294.59 13.45 295.39 14.25L295.39 14.25Q296.19 15.05 297.44 15.05L297.44 15.05Q298.79 15.05 299.64 14.1L299.64 14.1 300.39 14.85Q299.29 16.15 297.39 16.15ZM294.59 10.85L299.24 10.85Q299.24 9.65 298.64 8.95L298.64 8.95Q298.04 8.25 297.04 8.25L297.04 8.25Q296.14 8.25 295.44 8.9L295.44 8.9Q294.74 9.55 294.59 10.85L294.59 10.85Z" opacity="1" transform="matrix(1,0,0,1,0,0)" fill="#000000" class="wordmark-text-0" data-fill-palette-color="quaternary" id="text-0"></path></svg></g></svg></g><g transform="matrix(1,0,0,1,84.88456322945528,49.685920462139535)"><svg viewBox="0 0 117.53363514108938 28.874150256119066" height="28.874150256119066" width="117.53363514108938"><g transform="matrix(1,0,0,1,0,0)"><svg width="117.53363514108938" viewBox="2.1 -35.1 181.73000000000002 44.650000000000006" height="28.874150256119066" data-palette-color="#000000"><path d="M11.55-23.3Q14.8-23.3 16.68-21.7 18.55-20.1 18.55-17.3L18.55-17.3Q18.55-16.45 18.25-11.15L18.25-11.15Q17.95-5.85 17.95-4.95L17.95-4.95Q17.95-3.85 18.3-3.43 18.65-3 19.5-3L19.5-3Q20.25-3 21.2-3.3L21.2-3.3 21.6-2.95 21.2-0.7Q19.75 0.15 18.35 0.3L18.35 0.3Q16.8 0.15 15.88-0.8 14.95-1.75 14.9-3.4L14.9-3.4 14.55-3.4Q11.85-0.65 9.2 0.35L9.2 0.35Q5.85 0.35 3.98-1.33 2.1-3 2.1-5.9L2.1-5.9Q2.1-8.1 3.28-9.4 4.45-10.7 6.75-11.25L6.75-11.25 14.85-13.15 14.9-16.4Q14.9-18.35 13.88-19.4 12.85-20.45 10.95-20.45L10.95-20.45Q9.25-20.45 7.55-19.65 5.85-18.85 3.9-17.15L3.9-17.15 3.5-17.35 3-20.2Q7.15-23.3 11.55-23.3L11.55-23.3ZM14.8-10.6L7.55-8.85Q6.55-8.55 6.1-8.03 5.65-7.5 5.65-6.45L5.65-6.45Q5.65-4.8 6.58-3.88 7.5-2.95 9.05-2.95L9.05-2.95Q11.8-2.95 14.65-6.5L14.65-6.5 14.8-10.6ZM31.3-35.1L31-10.05 31.25 0 27.3 0 27.6-9.75 27.35-34.75 31.3-35.1ZM43.65-35.1L43.35-10.05 43.6 0 39.65 0 39.95-9.75 39.7-34.75 43.65-35.1ZM68.59-23.3Q73.24-23.3 75.82-20.28 78.39-17.25 78.39-11.75L78.39-11.75Q78.39-5.95 75.69-2.78 72.99 0.4 67.99 0.4L67.99 0.4Q63.29 0.4 60.72-2.63 58.14-5.65 58.14-11.15L58.14-11.15Q58.14-16.95 60.87-20.13 63.59-23.3 68.59-23.3L68.59-23.3ZM68.34-20.5Q65.19-20.5 63.54-18.35 61.89-16.2 61.89-12.05L61.89-12.05Q61.89-7.25 63.52-4.85 65.14-2.45 68.24-2.45L68.24-2.45Q71.39-2.45 73.04-4.55 74.69-6.65 74.69-10.85L74.69-10.85Q74.69-15.6 73.07-18.05 71.44-20.5 68.34-20.5L68.34-20.5ZM98.29 0L98.54-15.55Q98.59-17.6 97.59-18.75 96.59-19.9 94.64-19.9L94.64-19.9Q91.49-19.9 87.84-16.35L87.84-16.35 87.84-10.05 88.04 0 84.09 0 84.34-9.7 84.14-22.65 87.89-23 87.89-19.65 88.19-19.65Q91.29-22.4 94.54-23.2L94.54-23.2Q98.29-23.2 100.26-21.45 102.24-19.7 102.19-16.45L102.19-16.45 102.09-9.95 102.29 0 98.29 0ZM118.33-23.05L119.08-20.1 124.58-4.3 124.93-4.3 130.63-19.75 131.38-22.9 134.93-22.9 126.73-0.8Q125.48 2.6 124.06 4.55 122.63 6.5 120.61 7.63 118.58 8.75 115.28 9.55L115.28 9.55 114.93 9.55Q113.88 8.5 113.28 7.2L113.28 7.2 113.38 6.75Q117.18 6 119.21 4.63 121.23 3.25 122.98 0L122.98 0 114.58-22.8 118.33-23.05ZM147.33-23.3Q151.98-23.3 154.56-20.28 157.13-17.25 157.13-11.75L157.13-11.75Q157.13-5.95 154.43-2.78 151.73 0.4 146.73 0.4L146.73 0.4Q142.03 0.4 139.46-2.63 136.88-5.65 136.88-11.15L136.88-11.15Q136.88-16.95 139.61-20.13 142.33-23.3 147.33-23.3L147.33-23.3ZM147.08-20.5Q143.93-20.5 142.28-18.35 140.63-16.2 140.63-12.05L140.63-12.05Q140.63-7.25 142.26-4.85 143.88-2.45 146.98-2.45L146.98-2.45Q150.13-2.45 151.78-4.55 153.43-6.65 153.43-10.85L153.43-10.85Q153.43-15.6 151.81-18.05 150.18-20.5 147.08-20.5L147.08-20.5ZM183.43-3.3L183.83-2.95 183.43-0.7Q181.98 0.15 180.58 0.3L180.58 0.3Q179.13 0.1 178.25-0.73 177.38-1.55 177.03-3.2L177.03-3.2 176.73-3.2Q173.73-0.5 170.53 0.3L170.53 0.3Q166.83 0.3 164.9-1.45 162.98-3.2 163.03-6.45L163.03-6.45 163.08-12.8 162.93-22.65 166.93-23 166.63-7.4Q166.63-5.35 167.6-4.2 168.58-3.05 170.48-3.05L170.48-3.05Q173.58-3.05 176.68-6.05L176.68-6.05 176.68-22.65 180.48-23 180.23-4.9Q180.23-3.85 180.55-3.43 180.88-3 181.68-3L181.68-3Q182.48-3 183.43-3.3L183.43-3.3Z" opacity="1" transform="matrix(1,0,0,1,0,0)" fill="#000000" class="slogan-text-1" data-fill-palette-color="quaternary" id="text-1"></path></svg></g></svg></g></svg></g></svg></g><g></g></svg></g></svg></g><defs></defs><mask id="d6124c76-979e-4da8-a966-037ce98fb31b"><g id="SvgjsG1248"><svg viewBox="0 0 341.41138079999996 132.6686899182586" height="132.6686899182586" width="341.41138079999996"><g><svg viewBox="0 0 341.41138079999996 132.6686899182586" height="132.6686899182586" width="341.41138079999996"><g><svg viewBox="0 0 341.41138079999996 132.6686899182586" height="132.6686899182586" width="341.41138079999996"><g><svg viewBox="0 0 341.41138079999996 132.6686899182586" height="132.6686899182586" width="341.41138079999996"><g><path d="M0 132.669v-132.669h341.411v132.669z" fill="white" stroke="transparent" stroke-width="0" rx="0%"></path><path d="M13.527 119.142v-105.615h314.357v105.615z" fill="white" stroke="transparent" stroke-width="0"></path></g><g transform="matrix(1,0,0,1,27.054309599999996,27.054309599999996)" id="SvgjsG1247"><svg viewBox="0 0 287.30276159999994 78.5600707182586" height="78.5600707182586" width="287.30276159999994" id="SvgjsSvg1246"><g><svg viewBox="0 0 287.30276159999994 40.667817262139536" height="40.667817262139536" width="287.30276159999994"><g transform="matrix(1,0,0,1,0,0)"><svg width="287.30276159999994" viewBox="0 -29.5 322.49 45.65" height="40.667817262139536" data-palette-color="#000000"></svg></g></svg></g><g transform="matrix(1,0,0,1,84.88456322945528,49.685920462139535)"><svg viewBox="0 0 117.53363514108938 28.874150256119066" height="28.874150256119066" width="117.53363514108938"><g transform="matrix(1,0,0,1,0,0)"><svg width="117.53363514108938" viewBox="2.1 -35.1 181.73000000000002 44.650000000000006" height="28.874150256119066" data-palette-color="#000000"></svg></g></svg></g></svg></g></svg></g><g></g></svg></g></svg></g><defs><mask></mask></defs></svg></g></mask><linearGradient x1="0" x2="1" y1="0.5" y2="0.5" id="92162789-bbc4-446e-84da-2fae8a0d5dd5"><stop stop-color="#fff72e" offset="0"></stop><stop stop-color="#deae29" offset="1"></stop></linearGradient></svg><rect width="341.41138079999996" height="132.6686899182586" fill="none" stroke="none" visibility="hidden"></rect></g></svg></g></svg>