<svg xmlns="http://www.w3.org/2000/svg" version="1.1" xmlns:xlink="http://www.w3.org/1999/xlink" xmlns:svgjs="http://svgjs.dev/svgjs" width="1000" height="1000" viewBox="0 0 1000 1000"><rect width="1000" height="1000" fill="#ffffff"></rect><g transform="matrix(0.7,0,0,0.7,149.57575757575756,282.1265587044535)"><svg viewBox="0 0 396 247" data-background-color="#282634" preserveAspectRatio="xMidYMid meet" height="623" width="1000" xmlns="http://www.w3.org/2000/svg" xmlns:xlink="http://www.w3.org/1999/xlink"><g id="tight-bounds" transform="matrix(1,0,0,1,0.2400000000000091,-0.09999999999999432)"><svg viewBox="0 0 395.52 247.2" height="247.2" width="395.52"><g><svg></svg></g><g><svg viewBox="0 0 395.52 247.2" height="247.2" width="395.52"><mask id="f39c1bf7-db74-43f9-b0f2-8cbb67c3bfd2"><rect width="395.52" height="247.2" fill="white"></rect><g transform="matrix(1,0,0,1,20.212809112489424,37.08)" id="clone"><svg viewBox="0 0 355.09438177502113 173.04" height="173.04" width="355.09438177502113"><g><svg viewBox="0 0 355.09438177502113 173.04" height="173.04" width="355.09438177502113"><g><svg viewBox="0 0 395.52 192.73968925636888" height="173.04" width="355.09438177502113"><g><svg viewBox="0 0 395.52 192.73968925636888" height="192.73968925636888" width="395.52"><g id="SvgjsG1218"><svg viewBox="0 0 395.52 192.73968925636888" height="192.73968925636888" width="395.52" id="SvgjsSvg1217"><g><svg viewBox="0 0 395.52 114.79135762657205" height="114.79135762657205" width="395.52"><g transform="matrix(1,0,0,1,0,0)"><svg width="395.52" viewBox="-2.5999999940395355 -42 156.04000854492188 46" height="114.79135762657205" data-palette-color="#ff4057"><path d="M23.5-4.05L16.1 0.6Q14.7 0.9 13.25 0.9L13.25 0.9Q7.8 0.9 4.1-2.75 0.4-6.4 0.4-12L0.4-12Q0.4-17.8 4.1-21.5 7.8-25.2 13.45-25.2L13.45-25.2Q17.4-25.2 20.45-23.25 23.5-21.3 24.2-17.65L24.2-17.65 15.95-13.7Q14.2-18.5 12.15-20.15L12.15-20.15Q9.95-17.85 9.95-13.45L9.95-13.45Q9.95-9.85 11.7-7.63 13.45-5.4 16.65-5.4L16.65-5.4Q19-5.4 22.2-7L22.2-7 23.5-4.05ZM53.05-16.6L53.05-4.4 56.25-2.45 56.2 0 43 0 43-13.65Q43-18.65 39.5-18.45L39.5-18.45 38.15-18.2 38.15-4.15 40.8-2.45 40.75 0 24.4 0 24.35-1.75Q26.05-2.8 28.1-3.55L28.1-3.55 28.1-31.45 24.35-32.4 24.25-34.9Q29-36.55 35.2-36.85L35.2-36.85 38.15-34.15 38.15-21.35Q41.5-23.8 44.75-24.9L44.75-24.9Q46.7-25 48.9-24.2 51.1-23.4 52.45-21.25L52.45-21.25Q53-20.25 53.05-16.6L53.05-16.6ZM56.49-12.25L56.49-12.25Q56.49-17.95 60.17-21.58 63.84-25.2 69.44-25.2L69.44-25.2Q75.09-25.2 78.75-21.53 82.39-17.85 82.39-12.05 82.39-6.25 78.82-2.63 75.25 1 69.69 1L69.69 1Q64.05 1 60.27-2.73 56.49-6.45 56.49-12.25ZM70.89-4.1L70.89-4.1Q72.3-5.3 72.3-11.45L72.3-11.45Q72.3-19.8 69.14-19.8L69.14-19.8Q68.3-19.8 67.8-19.45L67.8-19.45Q66.59-17.6 66.59-11.95L66.59-11.95Q66.59-3.9 69.84-3.9L69.84-3.9Q70.34-3.9 70.89-4.1ZM92.64-27.15L92.64-27.15Q88.59-29 85.99-32.25L85.99-32.25Q88.14-36.4 91.54-39L91.54-39Q95.34-36.85 97.84-33.2L97.84-33.2Q95.94-29.5 92.64-27.15ZM97.14-22.5L97.14-4.4Q99.29-3.5 100.74-2.45L100.74-2.45 100.69 0 83.34 0 83.29-1.75Q84.89-2.75 87.09-3.6L87.09-3.6 87.09-19.8 83.34-20.75 83.24-23.2Q88.04-24.9 94.19-25.15L94.19-25.15 97.14-22.5ZM124.84-4.05L117.44 0.6Q116.04 0.9 114.59 0.9L114.59 0.9Q109.14 0.9 105.44-2.75 101.74-6.4 101.74-12L101.74-12Q101.74-17.8 105.44-21.5 109.14-25.2 114.79-25.2L114.79-25.2Q118.74-25.2 121.79-23.25 124.84-21.3 125.54-17.65L125.54-17.65 117.29-13.7Q115.54-18.5 113.49-20.15L113.49-20.15Q111.29-17.85 111.29-13.45L111.29-13.45Q111.29-9.85 113.04-7.63 114.79-5.4 117.99-5.4L117.99-5.4Q120.34-5.4 123.54-7L123.54-7 124.84-4.05ZM150.44-13.9L147.49-10.95 135.04-11Q135.54-8.3 137.39-6.85 139.24-5.4 141.99-5.4 144.74-5.4 148.34-7.35L148.34-7.35 149.74-4.25 141.84 0.55Q140.34 0.85 138.84 0.85L138.84 0.85Q133.14 0.85 129.41-2.68 125.69-6.2 125.69-11.8L125.69-11.8Q125.69-17.5 129.54-21.35 133.39-25.2 138.89-25.2L138.89-25.2Q143.99-25.2 147.21-22.13 150.44-19.05 150.44-13.9L150.44-13.9ZM137.89-20.65L137.89-20.65Q135.89-19.3 135.09-15.2L135.09-15.2 141.49-15.65Q141.24-17.6 140.26-19.03 139.29-20.45 137.89-20.65Z" opacity="1" transform="matrix(1,0,0,1,0,0)" fill="black" class="wordmark-text-0" id="SvgjsPath1216" stroke-width="5" stroke="black" stroke-linejoin="round"></path></svg></g></svg></g><g transform="matrix(1,0,0,1,2.5,129.6809701335053)"><svg viewBox="0 0 390.52 63.05871912286359" height="63.05871912286359" width="390.52"><g transform="matrix(1,0,0,1,0,0)"><svg width="390.52" viewBox="-0.9000000953674316 -43.95000076293945 363.0299987792969 59.400001525878906" height="63.05871912286359" data-palette-color="#dcdcdc"><path d="M8.15-32.75Q6.55-32.75 5.75-33.65 4.95-34.55 4.95-35.95L4.95-35.95Q4.95-37.55 5.93-38.6 6.9-39.65 8.6-39.65L8.6-39.65Q10.3-39.65 11.1-38.75 11.9-37.85 11.9-36.45L11.9-36.45Q11.9-34.75 10.93-33.75 9.95-32.75 8.2-32.75L8.2-32.75 8.15-32.75ZM6.15-2.9L6.15-23.9 2.35-24.8 2.35-27.45 10.1-28.4 10.2-28.4 11.35-27.5 11.35-2.85 15.35-2.45 15.35 0 2.1 0 2.1-2.45 6.15-2.9ZM31.11 0.5Q28.26 0.5 26.86-0.8 25.46-2.1 25.46-5.25L25.46-5.25 25.46-24.45 21.86-24.45 21.86-26.7Q22.11-26.75 23.26-27.05 24.41-27.35 24.81-27.6L24.81-27.6Q25.61-28.05 26.06-29.4L26.06-29.4Q26.46-30.35 27.01-32.45 27.56-34.55 27.66-34.95L27.66-34.95 30.61-34.95 30.71-27.75 39.06-27.75 39.06-24.45 30.71-24.45 30.71-9.1Q30.71-6.25 30.88-5.1 31.06-3.95 31.63-3.6 32.21-3.25 33.61-3.25L33.61-3.25Q34.96-3.25 36.58-3.6 38.21-3.95 39.11-4.35L39.11-4.35 39.86-2.1Q38.66-1.2 35.98-0.35 33.31 0.5 31.11 0.5L31.11 0.5ZM50.31-7.9L51.21-4Q51.71-3.25 53.34-2.65 54.96-2.05 56.76-2.05L56.76-2.05Q59.61-2.05 60.96-3.15 62.31-4.25 62.31-6.2L62.31-6.2Q62.31-7.55 61.46-8.55 60.61-9.55 59.09-10.33 57.56-11.1 54.71-12.2L54.71-12.2Q50.86-13.65 49.09-15.68 47.31-17.7 47.31-21L47.31-21Q47.31-23.2 48.64-24.85 49.96-26.5 52.29-27.43 54.61-28.35 57.46-28.35L57.46-28.35Q59.76-28.35 61.49-28 63.21-27.65 64.26-27.3 65.31-26.95 65.66-26.85L65.66-26.85 65.66-20.65 62.61-20.65 61.61-24.35Q61.31-24.95 60.01-25.38 58.71-25.8 57.11-25.8L57.11-25.8Q54.86-25.8 53.49-24.8 52.11-23.8 52.11-22.1L52.11-22.1Q52.11-20.6 52.84-19.63 53.56-18.65 54.66-18.05 55.76-17.45 57.66-16.65L57.66-16.65 58.66-16.25Q61.46-15.15 63.21-14.15 64.96-13.15 66.14-11.53 67.31-9.9 67.31-7.55L67.31-7.55Q67.31-3.85 64.44-1.65 61.56 0.55 56.56 0.55L56.56 0.55Q54.11 0.55 51.44-0.13 48.76-0.8 47.06-1.5L47.06-1.5 47.06-7.9 50.31-7.9ZM90.98-7.5Q90.98-12.2 95.68-14.43 100.38-16.65 107.58-16.8L107.58-16.8 107.58-18.2Q107.58-20.55 107.08-21.9 106.58-23.25 105.35-23.88 104.13-24.5 101.88-24.5L101.88-24.5Q99.33-24.5 97.3-23.78 95.28-23.05 93.28-22L93.28-22 92.03-24.6Q92.68-25.15 94.43-26.05 96.18-26.95 98.48-27.65 100.78-28.35 103.08-28.35L103.08-28.35Q106.63-28.35 108.7-27.38 110.78-26.4 111.68-24.25 112.58-22.1 112.58-18.5L112.58-18.5 112.58-2.45 115.53-2.45 115.53-0.25Q114.53 0 113 0.25 111.48 0.5 110.33 0.5L110.33 0.5Q108.93 0.5 108.43 0.08 107.93-0.35 107.93-1.8L107.93-1.8 107.93-3.45Q106.43-1.95 104.25-0.7 102.08 0.55 99.33 0.55L99.33 0.55Q95.73 0.55 93.35-1.53 90.98-3.6 90.98-7.5L90.98-7.5ZM101.48-2.85Q102.78-2.85 104.48-3.65 106.18-4.45 107.58-5.55L107.58-5.55 107.58-14.15Q102.13-14.15 99.35-12.48 96.58-10.8 96.58-8.1L96.58-8.1Q96.58-5.4 97.9-4.13 99.23-2.85 101.48-2.85L101.48-2.85ZM126.33-2.9L126.33-37.3 122.28-37.85 122.28-40 130.33-40.95 130.43-40.95 131.53-40.2 131.53-2.85 135.78-2.45 135.78 0 122.28 0 122.28-2.45 126.33-2.9ZM146.64-2.9L146.64-37.3 142.59-37.85 142.59-40 150.64-40.95 150.74-40.95 151.84-40.2 151.84-2.85 156.09-2.45 156.09 0 142.59 0 142.59-2.45 146.64-2.9ZM178.8-13.95Q178.8-18.45 180.65-21.75 182.5-25.05 185.53-26.78 188.55-28.5 192-28.5L192-28.5Q198.3-28.5 201.48-24.5 204.65-20.5 204.65-14L204.65-14Q204.65-9.45 202.8-6.15 200.95-2.85 197.93-1.15 194.9 0.55 191.45 0.55L191.45 0.55Q185.15 0.55 181.98-3.45 178.8-7.45 178.8-13.95L178.8-13.95ZM191.75-2.3Q195.2-2.3 197.05-5.15 198.9-8 198.9-13.6L198.9-13.6Q198.9-19.15 197.2-22.4 195.5-25.65 191.75-25.65L191.75-25.65Q188.3-25.65 186.43-22.8 184.55-19.95 184.55-14.35L184.55-14.35Q184.55-8.8 186.3-5.55 188.05-2.3 191.75-2.3L191.75-2.3ZM215.86-2.9L215.86-23.9 212.26-24.8 212.26-27.5 219.41-28.4 219.56-28.4 220.61-27.5 220.61-25.4 220.56-24.2Q222.36-25.8 225.31-27.1 228.26-28.4 230.96-28.4L230.96-28.4Q234.11-28.4 235.83-27.2 237.56-26 238.26-23.53 238.96-21.05 238.96-16.85L238.96-16.85 238.96-2.85 242.46-2.5 242.46 0 230.61 0 230.61-2.45 233.71-2.85 233.71-16.9Q233.71-19.85 233.31-21.53 232.91-23.2 231.81-24.03 230.71-24.85 228.61-24.85L228.61-24.85Q226.81-24.85 224.76-23.95 222.71-23.05 221.11-21.85L221.11-21.85 221.11-2.9 224.51-2.45 224.51 0 212.71 0 212.71-2.45 215.86-2.9ZM269.27 12.45Q268.42 12.45 267.6 12.35 266.77 12.25 266.42 12.05L266.42 12.05 266.42 7.7Q266.72 7.9 267.6 8 268.47 8.1 269.27 8.1L269.27 8.1Q271.67 8.1 273.5 6.43 275.32 4.75 277.02 0L277.02 0 274.62 0 265.12-24.75 262.82-25.4 262.82-27.75 274.87-27.75 274.87-25.4 271.02-24.8 275.92-10.05 278.22-2.75 280.37-10.1 284.82-24.8 281.47-25.4 281.47-27.75 291.52-27.75 291.52-25.4 289.02-24.8Q281.67-2.3 280.37 0.75L280.37 0.75Q278.67 5.05 277.27 7.48 275.87 9.9 273.97 11.18 272.07 12.45 269.27 12.45L269.27 12.45ZM297.48-13.95Q297.48-18.45 299.33-21.75 301.18-25.05 304.2-26.78 307.23-28.5 310.68-28.5L310.68-28.5Q316.98-28.5 320.15-24.5 323.33-20.5 323.33-14L323.33-14Q323.33-9.45 321.48-6.15 319.63-2.85 316.6-1.15 313.58 0.55 310.13 0.55L310.13 0.55Q303.83 0.55 300.65-3.45 297.48-7.45 297.48-13.95L297.48-13.95ZM310.43-2.3Q313.88-2.3 315.73-5.15 317.58-8 317.58-13.6L317.58-13.6Q317.58-19.15 315.88-22.4 314.18-25.65 310.43-25.65L310.43-25.65Q306.98-25.65 305.1-22.8 303.23-19.95 303.23-14.35L303.23-14.35Q303.23-8.8 304.98-5.55 306.73-2.3 310.43-2.3L310.43-2.3ZM354.28 0.45Q352.88 0.45 352.21-0.1 351.53-0.65 351.53-1.9L351.53-1.9 351.53-3.6Q349.88-1.95 347.41-0.7 344.93 0.55 342.43 0.55L342.43 0.55Q337.78 0.55 335.83-1.95 333.88-4.45 333.88-10.2L333.88-10.2 333.88-24.7 331.08-25.5 331.08-27.7 338.08-28.35 338.13-28.35 339.08-27.75 339.08-10.6Q339.08-7.7 339.51-6.08 339.93-4.45 341.01-3.68 342.08-2.9 344.13-2.9L344.13-2.9Q346.13-2.9 347.88-3.75 349.63-4.6 350.93-5.75L350.93-5.75 350.93-24.7 347.33-25.5 347.33-27.7 354.93-28.35 354.98-28.35 356.13-27.75 356.13-2.55 359.13-2.55 359.08-0.3Q357.68 0.05 356.66 0.25 355.63 0.45 354.28 0.45L354.28 0.45Z" opacity="1" transform="matrix(1,0,0,1,0,0)" fill="black" class="slogan-text-1" id="SvgjsPath1215" stroke-width="5" stroke="black" stroke-linejoin="round"></path></svg></g></svg></g></svg></g></svg></g><g></g></svg></g></svg></g></svg></g></mask><g mask="url(#f39c1bf7-db74-43f9-b0f2-8cbb67c3bfd2)"><g><path xmlns="http://www.w3.org/2000/svg" d="M292.216 183.293l10.885 32.656-75.143 30.9-10.183 0.351c-30.432 0-54.941-5.969-73.528-17.908-18.634-11.939-31.93-26.991-39.889-45.156-7.959-18.119-11.939-37.127-11.939-57.025v0c0-22.005 4.752-42.722 14.256-62.151 9.457-19.43 23.784-35.114 42.979-47.052 19.195-11.939 42.605-17.908 70.228-17.908v0c28.325 0 53.841 7.725 76.547 23.175v0l0.351 5.969c0 18.727-3.16 40.732-9.48 66.014v0h-43.541l-12.641-50.213c-11.705-4.214-24.58-7.023-38.625-8.427v0c-18.025 19.43-27.038 46.584-27.038 81.464v0c0 24.58 5.618 44.711 16.855 60.395 11.236 15.684 27.389 23.643 48.457 23.878v0z" fill="#000000" fill-rule="nonzero" stroke="none" stroke-width="1" stroke-linecap="butt" stroke-linejoin="miter" stroke-miterlimit="10" stroke-dasharray="" stroke-dashoffset="0" font-family="none" font-weight="none" font-size="none" text-anchor="none" style="mix-blend-mode: normal" data-fill-palette-color="tertiary"></path></g></g><g transform="matrix(1,0,0,1,20.212809112489424,37.08)"><svg viewBox="0 0 355.09438177502113 173.04" height="173.04" width="355.09438177502113"><g><svg viewBox="0 0 355.09438177502113 173.04" height="173.04" width="355.09438177502113"><g><svg viewBox="0 0 395.52 192.73968925636888" height="173.04" width="355.09438177502113"><g><svg viewBox="0 0 395.52 192.73968925636888" height="192.73968925636888" width="395.52"><g id="textblocktransform"><svg viewBox="0 0 395.52 192.73968925636888" height="192.73968925636888" width="395.52" id="textblock"><g><svg viewBox="0 0 395.52 114.79135762657205" height="114.79135762657205" width="395.52"><g transform="matrix(1,0,0,1,0,0)"><svg width="395.52" viewBox="-2.5999999940395355 -42 156.04000854492188 46" height="114.79135762657205" data-palette-color="#ff4057"><path d="M23.5-4.05L16.1 0.6Q14.7 0.9 13.25 0.9L13.25 0.9Q7.8 0.9 4.1-2.75 0.4-6.4 0.4-12L0.4-12Q0.4-17.8 4.1-21.5 7.8-25.2 13.45-25.2L13.45-25.2Q17.4-25.2 20.45-23.25 23.5-21.3 24.2-17.65L24.2-17.65 15.95-13.7Q14.2-18.5 12.15-20.15L12.15-20.15Q9.95-17.85 9.95-13.45L9.95-13.45Q9.95-9.85 11.7-7.63 13.45-5.4 16.65-5.4L16.65-5.4Q19-5.4 22.2-7L22.2-7 23.5-4.05ZM53.05-16.6L53.05-4.4 56.25-2.45 56.2 0 43 0 43-13.65Q43-18.65 39.5-18.45L39.5-18.45 38.15-18.2 38.15-4.15 40.8-2.45 40.75 0 24.4 0 24.35-1.75Q26.05-2.8 28.1-3.55L28.1-3.55 28.1-31.45 24.35-32.4 24.25-34.9Q29-36.55 35.2-36.85L35.2-36.85 38.15-34.15 38.15-21.35Q41.5-23.8 44.75-24.9L44.75-24.9Q46.7-25 48.9-24.2 51.1-23.4 52.45-21.25L52.45-21.25Q53-20.25 53.05-16.6L53.05-16.6ZM56.49-12.25L56.49-12.25Q56.49-17.95 60.17-21.58 63.84-25.2 69.44-25.2L69.44-25.2Q75.09-25.2 78.75-21.53 82.39-17.85 82.39-12.05 82.39-6.25 78.82-2.63 75.25 1 69.69 1L69.69 1Q64.05 1 60.27-2.73 56.49-6.45 56.49-12.25ZM70.89-4.1L70.89-4.1Q72.3-5.3 72.3-11.45L72.3-11.45Q72.3-19.8 69.14-19.8L69.14-19.8Q68.3-19.8 67.8-19.45L67.8-19.45Q66.59-17.6 66.59-11.95L66.59-11.95Q66.59-3.9 69.84-3.9L69.84-3.9Q70.34-3.9 70.89-4.1ZM92.64-27.15L92.64-27.15Q88.59-29 85.99-32.25L85.99-32.25Q88.14-36.4 91.54-39L91.54-39Q95.34-36.85 97.84-33.2L97.84-33.2Q95.94-29.5 92.64-27.15ZM97.14-22.5L97.14-4.4Q99.29-3.5 100.74-2.45L100.74-2.45 100.69 0 83.34 0 83.29-1.75Q84.89-2.75 87.09-3.6L87.09-3.6 87.09-19.8 83.34-20.75 83.24-23.2Q88.04-24.9 94.19-25.15L94.19-25.15 97.14-22.5ZM124.84-4.05L117.44 0.6Q116.04 0.9 114.59 0.9L114.59 0.9Q109.14 0.9 105.44-2.75 101.74-6.4 101.74-12L101.74-12Q101.74-17.8 105.44-21.5 109.14-25.2 114.79-25.2L114.79-25.2Q118.74-25.2 121.79-23.25 124.84-21.3 125.54-17.65L125.54-17.65 117.29-13.7Q115.54-18.5 113.49-20.15L113.49-20.15Q111.29-17.85 111.29-13.45L111.29-13.45Q111.29-9.85 113.04-7.63 114.79-5.4 117.99-5.4L117.99-5.4Q120.34-5.4 123.54-7L123.54-7 124.84-4.05ZM150.44-13.9L147.49-10.95 135.04-11Q135.54-8.3 137.39-6.85 139.24-5.4 141.99-5.4 144.74-5.4 148.34-7.35L148.34-7.35 149.74-4.25 141.84 0.55Q140.34 0.85 138.84 0.85L138.84 0.85Q133.14 0.85 129.41-2.68 125.69-6.2 125.69-11.8L125.69-11.8Q125.69-17.5 129.54-21.35 133.39-25.2 138.89-25.2L138.89-25.2Q143.99-25.2 147.21-22.13 150.44-19.05 150.44-13.9L150.44-13.9ZM137.89-20.65L137.89-20.65Q135.89-19.3 135.09-15.2L135.09-15.2 141.49-15.65Q141.24-17.6 140.26-19.03 139.29-20.45 137.89-20.65Z" opacity="1" transform="matrix(1,0,0,1,0,0)" fill="#000000" class="wordmark-text-0" data-fill-palette-color="primary" id="text-0"></path></svg></g></svg></g><g transform="matrix(1,0,0,1,2.5,129.6809701335053)"><svg viewBox="0 0 390.52 63.05871912286359" height="63.05871912286359" width="390.52"><g transform="matrix(1,0,0,1,0,0)"><svg width="390.52" viewBox="-0.9000000953674316 -43.95000076293945 363.0299987792969 59.400001525878906" height="63.05871912286359" data-palette-color="#dcdcdc"><path d="M8.15-32.75Q6.55-32.75 5.75-33.65 4.95-34.55 4.95-35.95L4.95-35.95Q4.95-37.55 5.93-38.6 6.9-39.65 8.6-39.65L8.6-39.65Q10.3-39.65 11.1-38.75 11.9-37.85 11.9-36.45L11.9-36.45Q11.9-34.75 10.93-33.75 9.95-32.75 8.2-32.75L8.2-32.75 8.15-32.75ZM6.15-2.9L6.15-23.9 2.35-24.8 2.35-27.45 10.1-28.4 10.2-28.4 11.35-27.5 11.35-2.85 15.35-2.45 15.35 0 2.1 0 2.1-2.45 6.15-2.9ZM31.11 0.5Q28.26 0.5 26.86-0.8 25.46-2.1 25.46-5.25L25.46-5.25 25.46-24.45 21.86-24.45 21.86-26.7Q22.11-26.75 23.26-27.05 24.41-27.35 24.81-27.6L24.81-27.6Q25.61-28.05 26.06-29.4L26.06-29.4Q26.46-30.35 27.01-32.45 27.56-34.55 27.66-34.95L27.66-34.95 30.61-34.95 30.71-27.75 39.06-27.75 39.06-24.45 30.71-24.45 30.71-9.1Q30.71-6.25 30.88-5.1 31.06-3.95 31.63-3.6 32.21-3.25 33.61-3.25L33.61-3.25Q34.96-3.25 36.58-3.6 38.21-3.95 39.11-4.35L39.11-4.35 39.86-2.1Q38.66-1.2 35.98-0.35 33.31 0.5 31.11 0.5L31.11 0.5ZM50.31-7.9L51.21-4Q51.71-3.25 53.34-2.65 54.96-2.05 56.76-2.05L56.76-2.05Q59.61-2.05 60.96-3.15 62.31-4.25 62.31-6.2L62.31-6.2Q62.31-7.55 61.46-8.55 60.61-9.55 59.09-10.33 57.56-11.1 54.71-12.2L54.71-12.2Q50.86-13.65 49.09-15.68 47.31-17.7 47.31-21L47.31-21Q47.31-23.2 48.64-24.85 49.96-26.5 52.29-27.43 54.61-28.35 57.46-28.35L57.46-28.35Q59.76-28.35 61.49-28 63.21-27.65 64.26-27.3 65.31-26.95 65.66-26.85L65.66-26.85 65.66-20.65 62.61-20.65 61.61-24.35Q61.31-24.95 60.01-25.38 58.71-25.8 57.11-25.8L57.11-25.8Q54.86-25.8 53.49-24.8 52.11-23.8 52.11-22.1L52.11-22.1Q52.11-20.6 52.84-19.63 53.56-18.65 54.66-18.05 55.76-17.45 57.66-16.65L57.66-16.65 58.66-16.25Q61.46-15.15 63.21-14.15 64.96-13.15 66.14-11.53 67.31-9.9 67.31-7.55L67.31-7.55Q67.31-3.85 64.44-1.65 61.56 0.55 56.56 0.55L56.56 0.55Q54.11 0.55 51.44-0.13 48.76-0.8 47.06-1.5L47.06-1.5 47.06-7.9 50.31-7.9ZM90.98-7.5Q90.98-12.2 95.68-14.43 100.38-16.65 107.58-16.8L107.58-16.8 107.58-18.2Q107.58-20.55 107.08-21.9 106.58-23.25 105.35-23.88 104.13-24.5 101.88-24.5L101.88-24.5Q99.33-24.5 97.3-23.78 95.28-23.05 93.28-22L93.28-22 92.03-24.6Q92.68-25.15 94.43-26.05 96.18-26.95 98.48-27.65 100.78-28.35 103.08-28.35L103.08-28.35Q106.63-28.35 108.7-27.38 110.78-26.4 111.68-24.25 112.58-22.1 112.58-18.5L112.58-18.5 112.58-2.45 115.53-2.45 115.53-0.25Q114.53 0 113 0.25 111.48 0.5 110.33 0.5L110.33 0.5Q108.93 0.5 108.43 0.08 107.93-0.35 107.93-1.8L107.93-1.8 107.93-3.45Q106.43-1.95 104.25-0.7 102.08 0.55 99.33 0.55L99.33 0.55Q95.73 0.55 93.35-1.53 90.98-3.6 90.98-7.5L90.98-7.5ZM101.48-2.85Q102.78-2.85 104.48-3.65 106.18-4.45 107.58-5.55L107.58-5.55 107.58-14.15Q102.13-14.15 99.35-12.48 96.58-10.8 96.58-8.1L96.58-8.1Q96.58-5.4 97.9-4.13 99.23-2.85 101.48-2.85L101.48-2.85ZM126.33-2.9L126.33-37.3 122.28-37.85 122.28-40 130.33-40.95 130.43-40.95 131.53-40.2 131.53-2.85 135.78-2.45 135.78 0 122.28 0 122.28-2.45 126.33-2.9ZM146.64-2.9L146.64-37.3 142.59-37.85 142.59-40 150.64-40.95 150.74-40.95 151.84-40.2 151.84-2.85 156.09-2.45 156.09 0 142.59 0 142.59-2.45 146.64-2.9ZM178.8-13.95Q178.8-18.45 180.65-21.75 182.5-25.05 185.53-26.78 188.55-28.5 192-28.5L192-28.5Q198.3-28.5 201.48-24.5 204.65-20.5 204.65-14L204.65-14Q204.65-9.45 202.8-6.15 200.95-2.85 197.93-1.15 194.9 0.55 191.45 0.55L191.45 0.55Q185.15 0.55 181.98-3.45 178.8-7.45 178.8-13.95L178.8-13.95ZM191.75-2.3Q195.2-2.3 197.05-5.15 198.9-8 198.9-13.6L198.9-13.6Q198.9-19.15 197.2-22.4 195.5-25.65 191.75-25.65L191.75-25.65Q188.3-25.65 186.43-22.8 184.55-19.95 184.55-14.35L184.55-14.35Q184.55-8.8 186.3-5.55 188.05-2.3 191.75-2.3L191.75-2.3ZM215.86-2.9L215.86-23.9 212.26-24.8 212.26-27.5 219.41-28.4 219.56-28.4 220.61-27.5 220.61-25.4 220.56-24.2Q222.36-25.8 225.31-27.1 228.26-28.4 230.96-28.4L230.96-28.4Q234.11-28.4 235.83-27.2 237.56-26 238.26-23.53 238.96-21.05 238.96-16.85L238.96-16.85 238.96-2.85 242.46-2.5 242.46 0 230.61 0 230.61-2.45 233.71-2.85 233.71-16.9Q233.71-19.85 233.31-21.53 232.91-23.2 231.81-24.03 230.71-24.85 228.61-24.85L228.61-24.85Q226.81-24.85 224.76-23.95 222.71-23.05 221.11-21.85L221.11-21.85 221.11-2.9 224.51-2.45 224.51 0 212.71 0 212.71-2.45 215.86-2.9ZM269.27 12.45Q268.42 12.45 267.6 12.35 266.77 12.25 266.42 12.05L266.42 12.05 266.42 7.7Q266.72 7.9 267.6 8 268.47 8.1 269.27 8.1L269.27 8.1Q271.67 8.1 273.5 6.43 275.32 4.75 277.02 0L277.02 0 274.62 0 265.12-24.75 262.82-25.4 262.82-27.75 274.87-27.75 274.87-25.4 271.02-24.8 275.92-10.05 278.22-2.75 280.37-10.1 284.82-24.8 281.47-25.4 281.47-27.75 291.52-27.75 291.52-25.4 289.02-24.8Q281.67-2.3 280.37 0.75L280.37 0.75Q278.67 5.05 277.27 7.48 275.87 9.9 273.97 11.18 272.07 12.45 269.27 12.45L269.27 12.45ZM297.48-13.95Q297.48-18.45 299.33-21.75 301.18-25.05 304.2-26.78 307.23-28.5 310.68-28.5L310.68-28.5Q316.98-28.5 320.15-24.5 323.33-20.5 323.33-14L323.33-14Q323.33-9.45 321.48-6.15 319.63-2.85 316.6-1.15 313.58 0.55 310.13 0.55L310.13 0.55Q303.83 0.55 300.65-3.45 297.48-7.45 297.48-13.95L297.48-13.95ZM310.43-2.3Q313.88-2.3 315.73-5.15 317.58-8 317.58-13.6L317.58-13.6Q317.58-19.15 315.88-22.4 314.18-25.65 310.43-25.65L310.43-25.65Q306.98-25.65 305.1-22.8 303.23-19.95 303.23-14.35L303.23-14.35Q303.23-8.8 304.98-5.55 306.73-2.3 310.43-2.3L310.43-2.3ZM354.28 0.45Q352.88 0.45 352.21-0.1 351.53-0.65 351.53-1.9L351.53-1.9 351.53-3.6Q349.88-1.95 347.41-0.7 344.93 0.55 342.43 0.55L342.43 0.55Q337.78 0.55 335.83-1.95 333.88-4.45 333.88-10.2L333.88-10.2 333.88-24.7 331.08-25.5 331.08-27.7 338.08-28.35 338.13-28.35 339.08-27.75 339.08-10.6Q339.08-7.7 339.51-6.08 339.93-4.45 341.01-3.68 342.08-2.9 344.13-2.9L344.13-2.9Q346.13-2.9 347.88-3.75 349.63-4.6 350.93-5.75L350.93-5.75 350.93-24.7 347.33-25.5 347.33-27.7 354.93-28.35 354.98-28.35 356.13-27.75 356.13-2.55 359.13-2.55 359.08-0.3Q357.68 0.05 356.66 0.25 355.63 0.45 354.28 0.45L354.28 0.45Z" opacity="1" transform="matrix(1,0,0,1,0,0)" fill="#000000" class="slogan-text-1" data-fill-palette-color="secondary" id="text-1"></path></svg></g></svg></g></svg></g></svg></g><g></g></svg></g></svg></g></svg></g></svg></g><defs></defs></svg><rect width="395.52" height="247.2" fill="none" stroke="none" visibility="hidden"></rect></g></svg></g></svg>